<svg id="Layer_1" data-name="Layer 1" xmlns="http://www.w3.org/2000/svg" viewBox="0 0 200 200"><defs><style>.cls-1{fill:#fff;}.cls-2,.cls-3{fill:none;stroke:#266141;stroke-miterlimit:10;}.cls-2{stroke-width:5.71px;}.cls-3{stroke-width:5.7px;}</style></defs><circle class="cls-1" cx="100" cy="100" r="100"/><path class="cls-2" d="M65.35,58.41c4.49.5,9,.81,13.34,2.26,2.65.9,3.6.07,4.67-2.35A35,35,0,0,1,96.9,43.06a4.71,4.71,0,0,1,5.59,0A34.43,34.43,0,0,1,116.74,59c.79,1.82,1.53,2.42,3.7,1.77a66.18,66.18,0,0,1,14.08-2.34,14,14,0,0,1,5.44,0c1.63,1.3,1.5,2.49,0,3.91q-3.57,3.41-6.89,7.08c-4.58,5.08-5,11.6-6.1,17.91-.75,4.44-1.38,8.91-2.25,13.33-1.5,7.66-7.11,11.08-14,13.12a27.11,27.11,0,0,1-3,.66c-5.57,1-5.57,1-5.57,6.5,0,5.24-.08,10.47,0,15.7,0,2-.67,2.92-2.63,3.05-2.38.16-1.72-1.63-1.74-2.81,0-6.37-.09-12.74,0-19.11,0-2.11-.47-2.61-2.81-2.88-7.51-.86-15.06-2.23-18.68-10.24-1.55-3.43-1.84-7.23-2.56-10.89-1.12-5.71-1.57-11.6-3.16-17.18-1.48-5.2-5.24-9.26-9.46-12.63-2.06-1.65-3.78-3-1.32-5.55A15.78,15.78,0,0,1,65.35,58.41Z" transform="translate(0 0)"/><path class="cls-2" d="M146.71,111.94c7.24.2,13.15,3,18.32,7.55a64.61,64.61,0,0,1,13.76,17.59c.62,1.12,1.57,2.33.27,3.72s-2.68.82-3.78.29c-3-1.47-6.28-2.08-9.49-2.89-5.3-1.34-10.17.34-15.09,1.94s-9.66,3-14.47,4.54c-8.63,2.79-13.84.51-20-6.54-1.94-2.22-3.2-5-4.87-7.51-1.3-1.93-.8-3.45,1.07-4.34,9-4.27,17.35-9.87,26.87-13.07A27.14,27.14,0,0,1,146.71,111.94Z" transform="translate(0 0)"/><path class="cls-2" d="M53.12,112a23.64,23.64,0,0,1,10.09,2.43c8,3.89,15.87,8,23.82,12,1.8.9,2.27,2.3,1.42,3.86-4,7.19-8.6,13.74-17.4,15.38-5.07,1-9.73-1.29-14.44-2.66s-9.37-3.22-14.13-4.58c-6.29-1.8-12.14.51-18,2.35-1.21.38-2.56,1.6-3.63.51s-.6-2.77.14-4.11c4.47-8.16,9.64-15.72,17.68-20.88A28,28,0,0,1,53.12,112Z" transform="translate(0 0)"/><path class="cls-2" d="M40.7,72.72c16.93,2,24.12,12.83,24.62,27.32.07,1.85-.4,3.34-2.37,3.41-7.76.29-15-1.48-20.74-6.93-6.39-6-8-13.83-7.64-22.27,0-1,.59-1.34,1.4-1.54A16.66,16.66,0,0,1,40.7,72.72Z" transform="translate(0 0)"/><path class="cls-2" d="M163.9,72.68l1.65,1.64a17.28,17.28,0,0,1-.1,4.71c-1.94,15.44-11.8,24.16-27.52,24.43-2.34,0-3.25-.86-3.25-3.2,0-8,2.07-15.13,8-20.86,4.62-4.45,10.41-5.85,16.47-6.66A17,17,0,0,1,163.9,72.68Z" transform="translate(0 0)"/><path class="cls-3" d="M78.69,60.67S100.35,66.12,100,88s0,30.63,0,30.63" transform="translate(0 0)"/><path class="cls-3" d="M121.28,60.67S99.62,66.12,100,88s0,30.63,0,30.63" transform="translate(0 0)"/></svg>